<svg width="40" height="40" viewBox="0 0 40 40" fill="none" xmlns="http://www.w3.org/2000/svg">
<rect width="40" height="40" rx="20" fill="#F6F6F6"/>
<path d="M10.688 14.464C11.3493 14.464 11.8613 14.5333 12.224 14.672C12.5867 14.8 12.896 14.9387 13.152 15.088C13.28 15.1627 13.3813 15.2213 13.456 15.264C13.5413 15.296 13.6213 15.312 13.696 15.312C13.8027 15.312 13.8773 15.2533 13.92 15.136C13.9733 15.0187 14.016 14.8427 14.048 14.608H14.416C14.4053 14.8213 14.3893 15.072 14.368 15.36C14.3573 15.648 14.3467 16.032 14.336 16.512C14.336 16.9813 14.336 17.6053 14.336 18.384H13.968C13.9253 17.808 13.792 17.2533 13.568 16.72C13.344 16.1867 13.0347 15.744 12.64 15.392C12.256 15.04 11.7813 14.864 11.216 14.864C10.7253 14.864 10.32 15.0027 10 15.28C9.68 15.5467 9.52 15.9307 9.52 16.432C9.52 16.8373 9.62133 17.1893 9.824 17.488C10.0267 17.776 10.3307 18.0693 10.736 18.368C11.152 18.6667 11.6747 19.0347 12.304 19.472C12.8053 19.8027 13.2533 20.1333 13.648 20.464C14.0427 20.7947 14.3573 21.168 14.592 21.584C14.8373 22 14.96 22.5013 14.96 23.088C14.96 23.792 14.768 24.3787 14.384 24.848C14 25.3067 13.4933 25.6533 12.864 25.888C12.2347 26.112 11.5467 26.224 10.8 26.224C10.1067 26.224 9.552 26.16 9.136 26.032C8.73067 25.904 8.384 25.7707 8.096 25.632C7.86133 25.4827 7.68 25.408 7.552 25.408C7.44533 25.408 7.36533 25.4667 7.312 25.584C7.26933 25.7013 7.232 25.8773 7.2 26.112H6.832C6.85333 25.8453 6.864 25.536 6.864 25.184C6.87467 24.8213 6.88 24.3573 6.88 23.792C6.89067 23.2267 6.896 22.5067 6.896 21.632H7.264C7.30667 22.3573 7.424 23.0347 7.616 23.664C7.81867 24.2933 8.12267 24.8053 8.528 25.2C8.944 25.584 9.49333 25.776 10.176 25.776C10.56 25.776 10.896 25.712 11.184 25.584C11.472 25.456 11.7013 25.2693 11.872 25.024C12.0427 24.768 12.128 24.4587 12.128 24.096C12.128 23.648 12.0267 23.2587 11.824 22.928C11.6213 22.5973 11.344 22.288 10.992 22C10.64 21.7013 10.2293 21.4027 9.76 21.104C9.25867 20.7733 8.78933 20.4373 8.352 20.096C7.91467 19.7547 7.56267 19.376 7.296 18.96C7.04 18.5333 6.912 18.0213 6.912 17.424C6.912 16.7413 7.088 16.1813 7.44 15.744C7.792 15.3067 8.256 14.9867 8.832 14.784C9.41867 14.5707 10.0373 14.464 10.688 14.464ZM18.0185 20.384C18.2212 20.384 18.3892 20.408 18.5225 20.456C18.6558 20.4987 18.7652 20.5547 18.8505 20.624C18.9198 20.6773 18.9758 20.736 19.0185 20.8C19.0612 20.864 19.0932 20.928 19.1145 20.992C19.1358 21.056 19.1465 21.1173 19.1465 21.176C19.1465 21.3093 19.0985 21.4133 19.0025 21.488C18.9118 21.5627 18.8105 21.6 18.6985 21.6C18.5918 21.6 18.4958 21.5653 18.4105 21.496C18.3252 21.4267 18.2825 21.328 18.2825 21.2C18.2825 21.0827 18.3225 20.984 18.4025 20.904C18.4825 20.8187 18.5838 20.7707 18.7065 20.76C18.6852 20.6907 18.6185 20.632 18.5065 20.584C18.3998 20.5307 18.2638 20.504 18.0985 20.504C17.8265 20.504 17.6025 20.5867 17.4265 20.752C17.2558 20.912 17.1705 21.1467 17.1705 21.456C17.1705 21.6053 17.1972 21.7573 17.2505 21.912C17.3092 22.0667 17.4185 22.2187 17.5785 22.368C17.6692 22.352 17.7625 22.3413 17.8585 22.336C17.9545 22.3253 18.0265 22.32 18.0745 22.32C18.1705 22.32 18.2478 22.336 18.3065 22.368C18.3652 22.4 18.3945 22.4453 18.3945 22.504C18.3945 22.552 18.3732 22.5893 18.3305 22.616C18.2932 22.6427 18.2398 22.656 18.1705 22.656C18.0692 22.656 17.9625 22.6347 17.8505 22.592C17.7385 22.544 17.6505 22.5067 17.5865 22.48C17.2772 22.5707 17.0265 22.72 16.8345 22.928C16.6425 23.1307 16.5465 23.4187 16.5465 23.792C16.5465 24.16 16.6425 24.472 16.8345 24.728C17.0265 24.984 17.2825 25.1813 17.6025 25.32C17.9278 25.4533 18.2905 25.52 18.6905 25.52C18.9732 25.52 19.2398 25.488 19.4905 25.424C19.7465 25.3547 19.9705 25.256 20.1625 25.128C20.3598 25 20.5145 24.848 20.6265 24.672C20.7385 24.4907 20.7945 24.2853 20.7945 24.056C20.7945 23.9547 20.7732 23.8267 20.7305 23.672C20.6878 23.512 20.5998 23.3573 20.4665 23.208C20.3332 23.0533 20.1278 22.9333 19.8505 22.848L19.9465 22.768C20.3358 22.8853 20.6132 23.0747 20.7785 23.336C20.9438 23.592 21.0265 23.88 21.0265 24.2C21.0265 24.52 20.9305 24.8267 20.7385 25.12C20.5465 25.4133 20.2692 25.6533 19.9065 25.84C19.5438 26.0213 19.1038 26.112 18.5865 26.112C18.2398 26.112 17.9092 26.0667 17.5945 25.976C17.2852 25.8853 17.0105 25.7547 16.7705 25.584C16.5305 25.408 16.3412 25.1973 16.2025 24.952C16.0638 24.7067 15.9945 24.4293 15.9945 24.12C15.9945 23.832 16.0505 23.5867 16.1625 23.384C16.2745 23.176 16.4132 23.0053 16.5785 22.872C16.7438 22.7387 16.9092 22.6373 17.0745 22.568C17.2398 22.4933 17.3732 22.4427 17.4745 22.416C17.2985 22.336 17.1492 22.2427 17.0265 22.136C16.9092 22.024 16.8185 21.904 16.7545 21.776C16.6958 21.6427 16.6665 21.512 16.6665 21.384C16.6665 21.256 16.6958 21.1333 16.7545 21.016C16.8132 20.8933 16.8985 20.784 17.0105 20.688C17.1225 20.592 17.2612 20.5173 17.4265 20.464C17.5972 20.4107 17.7945 20.384 18.0185 20.384ZM20.9305 20.224C21.2612 20.224 21.5385 20.32 21.7625 20.512C21.9865 20.6987 22.0985 20.9627 22.0985 21.304C22.0985 21.4853 22.0638 21.648 21.9945 21.792C21.9305 21.9307 21.8398 22.0533 21.7225 22.16C21.6105 22.2667 21.4825 22.3547 21.3385 22.424C21.2158 22.4827 21.0532 22.5467 20.8505 22.616C20.6532 22.6853 20.4398 22.7547 20.2105 22.824C19.9865 22.8933 19.7705 22.9627 19.5625 23.032C19.3598 23.096 19.1945 23.152 19.0665 23.2C18.8692 23.2747 18.7012 23.368 18.5625 23.48C18.4292 23.5867 18.3625 23.7253 18.3625 23.896C18.3625 24.0347 18.4025 24.152 18.4825 24.248C18.5625 24.344 18.6585 24.416 18.7705 24.464C18.8878 24.512 18.9972 24.536 19.0985 24.536C19.1465 24.536 19.2052 24.5307 19.2745 24.52C19.3492 24.504 19.4158 24.4827 19.4745 24.456C19.5332 24.4293 19.5678 24.3973 19.5785 24.36C19.4932 24.344 19.4078 24.3067 19.3225 24.248C19.2425 24.184 19.2025 24.0853 19.2025 23.952C19.2025 23.824 19.2452 23.7227 19.3305 23.648C19.4158 23.5733 19.5198 23.536 19.6425 23.536C19.7705 23.536 19.8718 23.576 19.9465 23.656C20.0265 23.736 20.0665 23.84 20.0665 23.968C20.0665 24.1173 20.0158 24.2453 19.9145 24.352C19.8185 24.4533 19.6958 24.5307 19.5465 24.584C19.4025 24.632 19.2585 24.656 19.1145 24.656C18.9652 24.656 18.8132 24.624 18.6585 24.56C18.5038 24.496 18.3758 24.3973 18.2745 24.264C18.1732 24.1253 18.1225 23.944 18.1225 23.72C18.1225 23.5333 18.1625 23.368 18.2425 23.224C18.3278 23.08 18.4532 22.952 18.6185 22.84C18.7838 22.728 18.9865 22.632 19.2265 22.552C19.3865 22.4987 19.5812 22.44 19.8105 22.376C20.0398 22.312 20.2745 22.2427 20.5145 22.168C20.7598 22.0933 20.9812 22.0107 21.1785 21.92C21.4452 21.7973 21.6265 21.672 21.7225 21.544C21.8185 21.416 21.8665 21.2853 21.8665 21.152C21.8665 20.9973 21.8238 20.8613 21.7385 20.744C21.6532 20.6213 21.5385 20.5253 21.3945 20.456C21.2558 20.3813 21.1038 20.344 20.9385 20.344C20.8745 20.344 20.8212 20.3493 20.7785 20.36C20.7358 20.3707 20.7092 20.3893 20.6985 20.416C20.7732 20.4533 20.8292 20.5067 20.8665 20.576C20.9038 20.6453 20.9225 20.7147 20.9225 20.784C20.9225 20.896 20.8772 20.9893 20.7865 21.064C20.7012 21.1387 20.5972 21.176 20.4745 21.176C20.3732 21.176 20.2772 21.144 20.1865 21.08C20.0958 21.0107 20.0505 20.9093 20.0505 20.776C20.0505 20.6373 20.0958 20.528 20.1865 20.448C20.2825 20.368 20.3972 20.312 20.5305 20.28C20.6692 20.2427 20.8025 20.224 20.9305 20.224ZM33.3138 14.672V14.992C33.0791 15.0987 32.8231 15.312 32.5458 15.632C32.2685 15.9413 32.0178 16.416 31.7938 17.056L28.5458 26.016C28.4391 26.0053 28.3218 26 28.1938 26C28.0765 25.9893 27.9591 25.984 27.8418 25.984C27.7245 25.984 27.6018 25.9893 27.4738 26C27.3565 26 27.2445 26.0053 27.1378 26.016L23.0098 16.016C22.8605 15.632 22.6951 15.3707 22.5138 15.232C22.3431 15.0827 22.1831 15.0027 22.0338 14.992V14.672C22.3858 14.6827 22.7965 14.6933 23.2658 14.704C23.7458 14.7147 24.2258 14.72 24.7058 14.72C25.2285 14.72 25.7138 14.7147 26.1618 14.704C26.6205 14.6933 26.9885 14.6827 27.2658 14.672V14.992C26.9245 15.0027 26.6578 15.04 26.4658 15.104C26.2845 15.168 26.1778 15.296 26.1458 15.488C26.1245 15.6693 26.1885 15.952 26.3378 16.336L29.2338 23.584L28.8818 24.032L30.8978 18.496C31.2071 17.632 31.3671 16.9493 31.3778 16.448C31.3885 15.936 31.2765 15.568 31.0418 15.344C30.8071 15.12 30.4765 15.0027 30.0498 14.992V14.672C30.4338 14.6827 30.7805 14.6933 31.0898 14.704C31.4098 14.7147 31.7458 14.72 32.0978 14.72C32.3218 14.72 32.5405 14.7147 32.7538 14.704C32.9671 14.6933 33.1538 14.6827 33.3138 14.672Z" fill="#04050A"/>
</svg>
