<svg width="137" height="40" viewBox="0 0 137 40" fill="none" xmlns="http://www.w3.org/2000/svg">
<rect width="40" height="40" rx="20" fill="#DCA141"/>
<path d="M10.544 14.464C11.1733 14.464 11.6587 14.5333 12 14.672C12.3413 14.8 12.6347 14.9387 12.88 15.088C13.008 15.1627 13.1093 15.2213 13.184 15.264C13.2693 15.296 13.3493 15.312 13.424 15.312C13.5307 15.312 13.6053 15.2533 13.648 15.136C13.7013 15.0187 13.744 14.8427 13.776 14.608H14.144C14.1333 14.8107 14.1173 15.056 14.096 15.344C14.0853 15.6213 14.0747 15.9893 14.064 16.448C14.064 16.9067 14.064 17.5093 14.064 18.256H13.696C13.6533 17.7013 13.5253 17.1627 13.312 16.64C13.0987 16.1173 12.7947 15.6907 12.4 15.36C12.016 15.0187 11.5413 14.848 10.976 14.848C10.464 14.848 10.0427 14.992 9.712 15.28C9.38133 15.568 9.216 15.968 9.216 16.48C9.216 16.9067 9.32267 17.2747 9.536 17.584C9.74933 17.8827 10.0587 18.176 10.464 18.464C10.88 18.752 11.3813 19.0987 11.968 19.504C12.48 19.8347 12.9387 20.1653 13.344 20.496C13.7493 20.8267 14.0747 21.2 14.32 21.616C14.5653 22.032 14.688 22.528 14.688 23.104C14.688 23.808 14.5013 24.3893 14.128 24.848C13.7653 25.3067 13.2853 25.6533 12.688 25.888C12.0907 26.112 11.4347 26.224 10.72 26.224C10.0587 26.224 9.53067 26.16 9.136 26.032C8.74133 25.904 8.41067 25.7707 8.144 25.632C7.90933 25.4827 7.728 25.408 7.6 25.408C7.49333 25.408 7.41333 25.4667 7.36 25.584C7.31733 25.7013 7.28 25.8773 7.248 26.112H6.88C6.90133 25.856 6.912 25.5573 6.912 25.216C6.92267 24.8747 6.928 24.432 6.928 23.888C6.93867 23.3333 6.944 22.6347 6.944 21.792H7.312C7.35467 22.496 7.472 23.1573 7.664 23.776C7.86667 24.384 8.17067 24.8747 8.576 25.248C8.992 25.6213 9.54133 25.808 10.224 25.808C10.5973 25.808 10.928 25.744 11.216 25.616C11.5147 25.4773 11.7547 25.2747 11.936 25.008C12.1173 24.7413 12.208 24.4107 12.208 24.016C12.208 23.568 12.1013 23.1787 11.888 22.848C11.6853 22.5173 11.4027 22.208 11.04 21.92C10.688 21.632 10.2773 21.3387 9.808 21.04C9.30667 20.7093 8.83733 20.3787 8.4 20.048C7.96267 19.7173 7.61067 19.3387 7.344 18.912C7.088 18.4853 6.96 17.9787 6.96 17.392C6.96 16.72 7.12533 16.1707 7.456 15.744C7.79733 15.3067 8.24 14.9867 8.784 14.784C9.33867 14.5707 9.92533 14.464 10.544 14.464ZM17.7998 20.384C18.0024 20.384 18.1704 20.408 18.3038 20.456C18.4371 20.4987 18.5464 20.5547 18.6318 20.624C18.7011 20.6773 18.7571 20.736 18.7998 20.8C18.8424 20.864 18.8744 20.928 18.8958 20.992C18.9171 21.056 18.9278 21.1173 18.9278 21.176C18.9278 21.3093 18.8798 21.4133 18.7838 21.488C18.6931 21.5627 18.5918 21.6 18.4798 21.6C18.3731 21.6 18.2771 21.5653 18.1918 21.496C18.1064 21.4267 18.0638 21.328 18.0638 21.2C18.0638 21.0827 18.1038 20.984 18.1838 20.904C18.2638 20.8187 18.3651 20.7707 18.4878 20.76C18.4664 20.6907 18.3998 20.632 18.2878 20.584C18.1811 20.5307 18.0451 20.504 17.8798 20.504C17.6078 20.504 17.3838 20.5867 17.2078 20.752C17.0371 20.912 16.9518 21.1467 16.9518 21.456C16.9518 21.6053 16.9784 21.7573 17.0318 21.912C17.0904 22.0667 17.1998 22.2187 17.3598 22.368C17.4504 22.352 17.5438 22.3413 17.6398 22.336C17.7358 22.3253 17.8078 22.32 17.8558 22.32C17.9518 22.32 18.0291 22.336 18.0878 22.368C18.1464 22.4 18.1758 22.4453 18.1758 22.504C18.1758 22.552 18.1544 22.5893 18.1118 22.616C18.0744 22.6427 18.0211 22.656 17.9518 22.656C17.8504 22.656 17.7438 22.6347 17.6318 22.592C17.5198 22.544 17.4318 22.5067 17.3678 22.48C17.0584 22.5707 16.8078 22.72 16.6158 22.928C16.4238 23.1307 16.3278 23.4187 16.3278 23.792C16.3278 24.16 16.4238 24.472 16.6158 24.728C16.8078 24.984 17.0638 25.1813 17.3838 25.32C17.7091 25.4533 18.0718 25.52 18.4718 25.52C18.7544 25.52 19.0211 25.488 19.2718 25.424C19.5278 25.3547 19.7518 25.256 19.9438 25.128C20.1411 25 20.2958 24.848 20.4078 24.672C20.5198 24.4907 20.5758 24.2853 20.5758 24.056C20.5758 23.9547 20.5544 23.8267 20.5118 23.672C20.4691 23.512 20.3811 23.3573 20.2478 23.208C20.1144 23.0533 19.9091 22.9333 19.6318 22.848L19.7278 22.768C20.1171 22.8853 20.3944 23.0747 20.5598 23.336C20.7251 23.592 20.8078 23.88 20.8078 24.2C20.8078 24.52 20.7118 24.8267 20.5198 25.12C20.3278 25.4133 20.0504 25.6533 19.6878 25.84C19.3251 26.0213 18.8851 26.112 18.3678 26.112C18.0211 26.112 17.6904 26.0667 17.3758 25.976C17.0664 25.8853 16.7918 25.7547 16.5518 25.584C16.3118 25.408 16.1224 25.1973 15.9838 24.952C15.8451 24.7067 15.7758 24.4293 15.7758 24.12C15.7758 23.832 15.8318 23.5867 15.9438 23.384C16.0558 23.176 16.1944 23.0053 16.3598 22.872C16.5251 22.7387 16.6904 22.6373 16.8558 22.568C17.0211 22.4933 17.1544 22.4427 17.2558 22.416C17.0798 22.336 16.9304 22.2427 16.8078 22.136C16.6904 22.024 16.5998 21.904 16.5358 21.776C16.4771 21.6427 16.4478 21.512 16.4478 21.384C16.4478 21.256 16.4771 21.1333 16.5358 21.016C16.5944 20.8933 16.6798 20.784 16.7918 20.688C16.9038 20.592 17.0424 20.5173 17.2078 20.464C17.3784 20.4107 17.5758 20.384 17.7998 20.384ZM20.7118 20.224C21.0424 20.224 21.3198 20.32 21.5438 20.512C21.7678 20.6987 21.8798 20.9627 21.8798 21.304C21.8798 21.4853 21.8451 21.648 21.7758 21.792C21.7118 21.9307 21.6211 22.0533 21.5038 22.16C21.3918 22.2667 21.2638 22.3547 21.1198 22.424C20.9971 22.4827 20.8344 22.5467 20.6318 22.616C20.4344 22.6853 20.2211 22.7547 19.9918 22.824C19.7678 22.8933 19.5518 22.9627 19.3438 23.032C19.1411 23.096 18.9758 23.152 18.8478 23.2C18.6504 23.2747 18.4824 23.368 18.3438 23.48C18.2104 23.5867 18.1438 23.7253 18.1438 23.896C18.1438 24.0347 18.1838 24.152 18.2638 24.248C18.3438 24.344 18.4398 24.416 18.5518 24.464C18.6691 24.512 18.7784 24.536 18.8798 24.536C18.9278 24.536 18.9864 24.5307 19.0558 24.52C19.1304 24.504 19.1971 24.4827 19.2558 24.456C19.3144 24.4293 19.3491 24.3973 19.3598 24.36C19.2744 24.344 19.1891 24.3067 19.1038 24.248C19.0238 24.184 18.9838 24.0853 18.9838 23.952C18.9838 23.824 19.0264 23.7227 19.1118 23.648C19.1971 23.5733 19.3011 23.536 19.4238 23.536C19.5518 23.536 19.6531 23.576 19.7278 23.656C19.8078 23.736 19.8478 23.84 19.8478 23.968C19.8478 24.1173 19.7971 24.2453 19.6958 24.352C19.5998 24.4533 19.4771 24.5307 19.3278 24.584C19.1838 24.632 19.0398 24.656 18.8958 24.656C18.7464 24.656 18.5944 24.624 18.4398 24.56C18.2851 24.496 18.1571 24.3973 18.0558 24.264C17.9544 24.1253 17.9038 23.944 17.9038 23.72C17.9038 23.5333 17.9438 23.368 18.0238 23.224C18.1091 23.08 18.2344 22.952 18.3998 22.84C18.5651 22.728 18.7678 22.632 19.0078 22.552C19.1678 22.4987 19.3624 22.44 19.5918 22.376C19.8211 22.312 20.0558 22.2427 20.2958 22.168C20.5411 22.0933 20.7624 22.0107 20.9598 21.92C21.2264 21.7973 21.4078 21.672 21.5038 21.544C21.5998 21.416 21.6478 21.2853 21.6478 21.152C21.6478 20.9973 21.6051 20.8613 21.5198 20.744C21.4344 20.6213 21.3198 20.5253 21.1758 20.456C21.0371 20.3813 20.8851 20.344 20.7198 20.344C20.6558 20.344 20.6024 20.3493 20.5598 20.36C20.5171 20.3707 20.4904 20.3893 20.4798 20.416C20.5544 20.4533 20.6104 20.5067 20.6478 20.576C20.6851 20.6453 20.7038 20.7147 20.7038 20.784C20.7038 20.896 20.6584 20.9893 20.5678 21.064C20.4824 21.1387 20.3784 21.176 20.2558 21.176C20.1544 21.176 20.0584 21.144 19.9678 21.08C19.8771 21.0107 19.8318 20.9093 19.8318 20.776C19.8318 20.6373 19.8771 20.528 19.9678 20.448C20.0638 20.368 20.1784 20.312 20.3118 20.28C20.4504 20.2427 20.5838 20.224 20.7118 20.224ZM32.8871 14.672V14.992C32.6524 15.0773 32.4017 15.264 32.1351 15.552C31.8791 15.84 31.6391 16.288 31.4151 16.896L28.0391 26.032C27.9537 26.0213 27.8631 26.016 27.7671 26.016C27.6711 26.016 27.5751 26.016 27.4791 26.016C27.3937 26.016 27.3031 26.016 27.2071 26.016C27.1111 26.016 27.0204 26.0213 26.9351 26.032L22.8551 16.016C22.7057 15.632 22.5404 15.3707 22.3591 15.232C22.1777 15.0827 22.0071 15.0027 21.8471 14.992V14.672C22.1671 14.6827 22.5404 14.6933 22.9671 14.704C23.4044 14.7147 23.8417 14.72 24.2791 14.72C24.7697 14.72 25.2284 14.7147 25.6551 14.704C26.0924 14.6933 26.4444 14.6827 26.7111 14.672V14.992C26.3697 15.0027 26.1031 15.0453 25.9111 15.12C25.7191 15.184 25.6124 15.312 25.5911 15.504C25.5697 15.6853 25.6337 15.9627 25.7831 16.336L28.6951 23.744L28.3591 24.144L30.5671 18.192C30.8551 17.392 31.0044 16.7627 31.0151 16.304C31.0257 15.8453 30.9137 15.5147 30.6791 15.312C30.4444 15.1093 30.1084 15.0027 29.6711 14.992V14.672C30.0337 14.6827 30.3751 14.6933 30.6951 14.704C31.0151 14.7147 31.3404 14.72 31.6711 14.72C31.9057 14.72 32.1244 14.7147 32.3271 14.704C32.5404 14.6933 32.7271 14.6827 32.8871 14.672Z" fill="#F6F6F6"/>
<path d="M55.992 13.008C59.064 13.008 61.336 13.728 62.808 15.168C64.296 16.592 65.04 18.64 65.04 21.312C65.04 23.056 64.672 24.584 63.936 25.896C63.216 27.192 62.168 28.2 60.792 28.92C59.416 29.64 57.744 30 55.776 30C55.536 30 55.208 29.992 54.792 29.976C54.392 29.96 53.968 29.952 53.52 29.952C53.088 29.936 52.688 29.928 52.32 29.928C51.664 29.928 51.024 29.936 50.4 29.952C49.776 29.952 49.264 29.968 48.864 30V29.52C49.392 29.488 49.784 29.424 50.04 29.328C50.312 29.232 50.488 29.04 50.568 28.752C50.664 28.464 50.712 28.032 50.712 27.456V15.552C50.712 14.96 50.664 14.528 50.568 14.256C50.488 13.968 50.312 13.776 50.04 13.68C49.784 13.568 49.392 13.504 48.864 13.488V13.008C49.264 13.024 49.776 13.048 50.4 13.08C51.024 13.096 51.648 13.096 52.272 13.08C52.848 13.064 53.496 13.048 54.216 13.032C54.936 13.016 55.528 13.008 55.992 13.008ZM55.776 13.44C55.04 13.44 54.56 13.576 54.336 13.848C54.112 14.12 54 14.672 54 15.504V27.504C54 28.336 54.112 28.888 54.336 29.16C54.576 29.432 55.064 29.568 55.8 29.568C57.288 29.568 58.448 29.256 59.28 28.632C60.128 27.992 60.72 27.064 61.056 25.848C61.408 24.632 61.584 23.152 61.584 21.408C61.584 19.616 61.392 18.136 61.008 16.968C60.64 15.784 60.032 14.904 59.184 14.328C58.336 13.736 57.2 13.44 55.776 13.44ZM70.0069 30.168C69.3189 30.168 68.7349 30.04 68.2549 29.784C67.7749 29.512 67.4149 29.152 67.1749 28.704C66.9349 28.24 66.8149 27.728 66.8149 27.168C66.8149 26.48 66.9749 25.92 67.2949 25.488C67.6149 25.04 68.0229 24.688 68.5189 24.432C69.0309 24.16 69.5669 23.936 70.1269 23.76C70.6869 23.568 71.2149 23.392 71.7109 23.232C72.2069 23.056 72.6149 22.856 72.9349 22.632C73.2549 22.408 73.4149 22.112 73.4149 21.744V19.992C73.4149 19.48 73.3349 19.064 73.1749 18.744C73.0309 18.408 72.8069 18.16 72.5029 18C72.2149 17.824 71.8469 17.736 71.3989 17.736C71.0629 17.736 70.7109 17.784 70.3429 17.88C69.9749 17.976 69.6709 18.16 69.4309 18.432C69.8469 18.544 70.1669 18.752 70.3909 19.056C70.6309 19.36 70.7509 19.728 70.7509 20.16C70.7509 20.656 70.5829 21.048 70.2469 21.336C69.9269 21.608 69.5189 21.744 69.0229 21.744C68.4949 21.744 68.0949 21.576 67.8229 21.24C67.5509 20.904 67.4149 20.512 67.4149 20.064C67.4149 19.616 67.5269 19.248 67.7509 18.96C67.9749 18.656 68.2869 18.384 68.6869 18.144C69.0869 17.872 69.5989 17.656 70.2229 17.496C70.8469 17.336 71.5269 17.256 72.2629 17.256C72.9669 17.256 73.5909 17.336 74.1349 17.496C74.6789 17.64 75.1429 17.904 75.5269 18.288C75.9109 18.656 76.1589 19.112 76.2709 19.656C76.3829 20.2 76.4389 20.864 76.4389 21.648V28.224C76.4389 28.624 76.4869 28.912 76.5829 29.088C76.6789 29.248 76.8309 29.328 77.0389 29.328C77.1989 29.328 77.3509 29.288 77.4949 29.208C77.6389 29.128 77.7989 29.016 77.9749 28.872L78.2389 29.28C77.8869 29.552 77.5189 29.768 77.1349 29.928C76.7509 30.088 76.2869 30.168 75.7429 30.168C75.1829 30.168 74.7349 30.088 74.3989 29.928C74.0789 29.768 73.8389 29.536 73.6789 29.232C73.5349 28.928 73.4549 28.568 73.4389 28.152C73.0549 28.792 72.5829 29.288 72.0229 29.64C71.4629 29.992 70.7909 30.168 70.0069 30.168ZM71.4469 28.824C71.8309 28.824 72.1829 28.72 72.5029 28.512C72.8389 28.304 73.1429 27.992 73.4149 27.576V22.728C73.2549 22.968 73.0229 23.184 72.7189 23.376C72.4309 23.568 72.1189 23.76 71.7829 23.952C71.4469 24.144 71.1269 24.368 70.8229 24.624C70.5349 24.864 70.2869 25.168 70.0789 25.536C69.8869 25.888 69.7909 26.344 69.7909 26.904C69.7909 27.528 69.9429 28.008 70.2469 28.344C70.5509 28.664 70.9509 28.824 71.4469 28.824ZM90.4588 12.72C91.3548 12.72 92.0428 12.816 92.5228 13.008C93.0028 13.2 93.4188 13.408 93.7708 13.632C93.9628 13.744 94.1148 13.832 94.2268 13.896C94.3548 13.944 94.4748 13.968 94.5868 13.968C94.7468 13.968 94.8588 13.88 94.9228 13.704C95.0028 13.528 95.0668 13.264 95.1148 12.912H95.6668C95.6508 13.216 95.6268 13.568 95.5948 13.968C95.5788 14.368 95.5628 14.904 95.5468 15.576C95.5468 16.232 95.5468 17.104 95.5468 18.192H94.9948C94.9468 17.376 94.7628 16.592 94.4428 15.84C94.1388 15.088 93.6988 14.472 93.1228 13.992C92.5628 13.496 91.8428 13.248 90.9628 13.248C90.1788 13.248 89.5228 13.48 88.9948 13.944C88.4828 14.408 88.2268 15.032 88.2268 15.816C88.2268 16.488 88.3948 17.056 88.7308 17.52C89.0668 17.968 89.5388 18.408 90.1468 18.84C90.7708 19.256 91.5068 19.736 92.3548 20.28C93.1388 20.792 93.8428 21.304 94.4668 21.816C95.0908 22.312 95.5788 22.864 95.9308 23.472C96.2988 24.08 96.4828 24.824 96.4828 25.704C96.4828 26.744 96.2268 27.608 95.7148 28.296C95.2028 28.984 94.5148 29.496 93.6508 29.832C92.7868 30.168 91.8428 30.336 90.8188 30.336C89.8748 30.336 89.1228 30.24 88.5628 30.048C88.0188 29.856 87.5468 29.656 87.1468 29.448C86.7948 29.224 86.5228 29.112 86.3308 29.112C86.1708 29.112 86.0508 29.2 85.9708 29.376C85.9068 29.552 85.8508 29.816 85.8028 30.168H85.2508C85.2828 29.8 85.2988 29.368 85.2988 28.872C85.3148 28.376 85.3228 27.736 85.3228 26.952C85.3388 26.152 85.3468 25.144 85.3468 23.928H85.8988C85.9628 24.952 86.1388 25.912 86.4268 26.808C86.7308 27.688 87.1868 28.4 87.7948 28.944C88.4188 29.488 89.2428 29.76 90.2668 29.76C90.8268 29.76 91.3308 29.664 91.7788 29.472C92.2428 29.264 92.6108 28.952 92.8828 28.536C93.1548 28.104 93.2908 27.56 93.2908 26.904C93.2908 26.248 93.1388 25.672 92.8348 25.176C92.5308 24.68 92.1068 24.216 91.5628 23.784C91.0188 23.352 90.3788 22.912 89.6428 22.464C88.8908 21.984 88.1868 21.496 87.5308 21C86.8748 20.504 86.3468 19.944 85.9468 19.32C85.5628 18.68 85.3708 17.912 85.3708 17.016C85.3708 16.024 85.6108 15.216 86.0908 14.592C86.5708 13.952 87.1948 13.48 87.9628 13.176C88.7468 12.872 89.5788 12.72 90.4588 12.72ZM101.147 11.472C101.723 11.472 102.195 11.632 102.563 11.952C102.931 12.272 103.115 12.696 103.115 13.224C103.115 13.752 102.931 14.176 102.563 14.496C102.195 14.816 101.723 14.976 101.147 14.976C100.571 14.976 100.099 14.816 99.7309 14.496C99.3629 14.176 99.1789 13.752 99.1789 13.224C99.1789 12.696 99.3629 12.272 99.7309 11.952C100.099 11.632 100.571 11.472 101.147 11.472ZM102.827 17.328V27.768C102.827 28.44 102.947 28.896 103.187 29.136C103.443 29.376 103.867 29.496 104.459 29.496V30C104.171 29.984 103.731 29.968 103.139 29.952C102.547 29.92 101.947 29.904 101.339 29.904C100.747 29.904 100.147 29.92 99.5389 29.952C98.9309 29.968 98.4749 29.984 98.1709 30V29.496C98.7629 29.496 99.1789 29.376 99.4189 29.136C99.6749 28.896 99.8029 28.44 99.8029 27.768V20.232C99.8029 19.496 99.6829 18.96 99.4429 18.624C99.2189 18.272 98.7949 18.096 98.1709 18.096V17.592C98.6829 17.64 99.1789 17.664 99.6589 17.664C100.251 17.664 100.811 17.64 101.339 17.592C101.883 17.528 102.379 17.44 102.827 17.328ZM110.066 11.208V27.768C110.066 28.44 110.186 28.896 110.426 29.136C110.682 29.376 111.106 29.496 111.698 29.496V30C111.41 29.984 110.97 29.968 110.378 29.952C109.802 29.92 109.21 29.904 108.602 29.904C108.01 29.904 107.402 29.92 106.778 29.952C106.17 29.968 105.714 29.984 105.41 30V29.496C106.002 29.496 106.418 29.376 106.658 29.136C106.914 28.896 107.042 28.44 107.042 27.768V14.088C107.042 13.368 106.93 12.84 106.706 12.504C106.482 12.152 106.05 11.976 105.41 11.976V11.472C105.922 11.52 106.418 11.544 106.898 11.544C107.506 11.544 108.074 11.52 108.602 11.472C109.13 11.408 109.618 11.32 110.066 11.208ZM124.195 17.592V18.096C123.891 18.16 123.603 18.328 123.331 18.6C123.075 18.872 122.827 19.352 122.587 20.04L118.915 30.072C118.723 30.056 118.531 30.048 118.339 30.048C118.147 30.048 117.947 30.056 117.739 30.072L113.419 19.44C113.179 18.832 112.931 18.456 112.675 18.312C112.419 18.168 112.203 18.096 112.027 18.096V17.592C112.475 17.624 112.939 17.656 113.419 17.688C113.899 17.704 114.427 17.712 115.003 17.712C115.499 17.712 116.019 17.704 116.563 17.688C117.123 17.656 117.643 17.624 118.123 17.592V18.096C117.771 18.096 117.451 18.12 117.163 18.168C116.891 18.216 116.707 18.344 116.611 18.552C116.515 18.744 116.555 19.088 116.731 19.584L119.611 27.048L119.395 27.312L121.579 21.384C121.851 20.632 121.963 20.024 121.915 19.56C121.867 19.096 121.691 18.744 121.387 18.504C121.099 18.264 120.683 18.128 120.139 18.096V17.592C120.411 17.608 120.667 17.624 120.907 17.64C121.163 17.656 121.411 17.672 121.651 17.688C121.907 17.688 122.147 17.688 122.371 17.688C122.707 17.688 123.035 17.68 123.355 17.664C123.691 17.648 123.971 17.624 124.195 17.592ZM127.944 30.168C127.256 30.168 126.672 30.04 126.192 29.784C125.712 29.512 125.352 29.152 125.112 28.704C124.872 28.24 124.752 27.728 124.752 27.168C124.752 26.48 124.912 25.92 125.232 25.488C125.552 25.04 125.96 24.688 126.456 24.432C126.968 24.16 127.504 23.936 128.064 23.76C128.624 23.568 129.152 23.392 129.648 23.232C130.144 23.056 130.552 22.856 130.872 22.632C131.192 22.408 131.352 22.112 131.352 21.744V19.992C131.352 19.48 131.272 19.064 131.112 18.744C130.968 18.408 130.744 18.16 130.44 18C130.152 17.824 129.784 17.736 129.336 17.736C129 17.736 128.648 17.784 128.28 17.88C127.912 17.976 127.608 18.16 127.368 18.432C127.784 18.544 128.104 18.752 128.328 19.056C128.568 19.36 128.688 19.728 128.688 20.16C128.688 20.656 128.52 21.048 128.184 21.336C127.864 21.608 127.456 21.744 126.96 21.744C126.432 21.744 126.032 21.576 125.76 21.24C125.488 20.904 125.352 20.512 125.352 20.064C125.352 19.616 125.464 19.248 125.688 18.96C125.912 18.656 126.224 18.384 126.624 18.144C127.024 17.872 127.536 17.656 128.16 17.496C128.784 17.336 129.464 17.256 130.2 17.256C130.904 17.256 131.528 17.336 132.072 17.496C132.616 17.64 133.08 17.904 133.464 18.288C133.848 18.656 134.096 19.112 134.208 19.656C134.32 20.2 134.376 20.864 134.376 21.648V28.224C134.376 28.624 134.424 28.912 134.52 29.088C134.616 29.248 134.768 29.328 134.976 29.328C135.136 29.328 135.288 29.288 135.432 29.208C135.576 29.128 135.736 29.016 135.912 28.872L136.176 29.28C135.824 29.552 135.456 29.768 135.072 29.928C134.688 30.088 134.224 30.168 133.68 30.168C133.12 30.168 132.672 30.088 132.336 29.928C132.016 29.768 131.776 29.536 131.616 29.232C131.472 28.928 131.392 28.568 131.376 28.152C130.992 28.792 130.52 29.288 129.96 29.64C129.4 29.992 128.728 30.168 127.944 30.168ZM129.384 28.824C129.768 28.824 130.12 28.72 130.44 28.512C130.776 28.304 131.08 27.992 131.352 27.576V22.728C131.192 22.968 130.96 23.184 130.656 23.376C130.368 23.568 130.056 23.76 129.72 23.952C129.384 24.144 129.064 24.368 128.76 24.624C128.472 24.864 128.224 25.168 128.016 25.536C127.824 25.888 127.728 26.344 127.728 26.904C127.728 27.528 127.88 28.008 128.184 28.344C128.488 28.664 128.888 28.824 129.384 28.824Z" fill="#F6F6F6"/>
</svg>
