<svg width="32" height="24" viewBox="0 0 32 24" fill="none" xmlns="http://www.w3.org/2000/svg">
<g clip-path="url(#clip0_32_3)">
<rect width="32" height="24" rx="8" fill="white"/>
<path fill-rule="evenodd" clip-rule="evenodd" d="M8 0H32V24H8V0Z" fill="#EF0000"/>
<path fill-rule="evenodd" clip-rule="evenodd" d="M0 0H12V24H0V0Z" fill="#2F8D00"/>
<mask id="mask0_32_3" style="mask-type:luminance" maskUnits="userSpaceOnUse" x="4" y="4" width="16" height="16">
<path fill-rule="evenodd" clip-rule="evenodd" d="M11.9047 19.8072C7.64423 19.8072 4.19043 16.3118 4.19043 12C4.19043 7.68819 7.64423 4.19277 11.9047 4.19277C16.1652 4.19277 19.619 7.68819 19.619 12C19.619 16.3118 16.1652 19.8072 11.9047 19.8072Z" fill="white"/>
</mask>
<g mask="url(#mask0_32_3)">
<path fill-rule="evenodd" clip-rule="evenodd" d="M11.4285 4H12.4285V6.6988H11.4285V4Z" fill="#FFE017"/>
<path fill-rule="evenodd" clip-rule="evenodd" d="M11.4285 17.494H12.4285V20H11.4285V17.494Z" fill="#FFE017"/>
<path d="M4.3145 12.4038L4.03491 11.6865C7.1201 10.4548 9.44866 9.66049 11.0286 9.30252C13.3468 8.77731 15.8938 8.38873 18.67 8.13647L18.7382 8.90447C15.9938 9.15383 13.4794 9.53743 11.1951 10.055C9.66214 10.4023 7.36592 11.1856 4.3145 12.4038Z" fill="#FFE017"/>
<path d="M19.1408 7.66389L18.914 8.39999C16.5822 7.66388 14.6828 7.34746 13.2228 7.44547L13.1724 6.67608C14.74 6.57085 16.7271 6.90188 19.1408 7.66389Z" fill="#FFE017"/>
<path d="M19.9476 11.7798L19.5166 12.4156C18.3279 11.5903 16.8635 11.1758 15.1133 11.1758V10.4047C17.0107 10.4047 18.6254 10.8618 19.9476 11.7798Z" fill="#FFE017"/>
<path d="M19.302 12.0106L19.499 12.7554C16.9364 13.4496 14.5304 13.8434 12.281 13.9361C10.016 14.0295 7.37616 13.6343 4.35913 12.7534L4.57031 12.0126C7.51402 12.872 10.0747 13.2554 12.25 13.1657C14.4408 13.0754 16.7915 12.6906 19.302 12.0106Z" fill="#FFE017"/>
<path d="M19.0116 15.6359L17.8072 16.8706C15.5185 14.584 13.5036 12.949 11.7748 11.9667C10.0165 10.9675 7.72353 9.95293 4.89941 8.92703L5.47856 7.2941C8.38597 8.35025 10.7633 9.40215 12.6141 10.4539C14.4945 11.5224 16.6228 13.2494 19.0116 15.6359Z" fill="#FFE017"/>
<path d="M5.4583 16.3353L5.00244 15.7175C5.0661 15.6694 5.17969 15.5891 5.33619 15.4875C5.59459 15.3196 5.88153 15.152 6.19025 14.9954C7.04055 14.564 7.89349 14.2947 8.70701 14.27C8.74679 14.2688 8.78641 14.2682 8.82586 14.2682V15.0393C8.79408 15.0393 8.76209 15.0397 8.72989 15.0407C8.04432 15.0616 7.29145 15.2993 6.53166 15.6847C6.24846 15.8284 5.98459 15.9825 5.74777 16.1364C5.66534 16.1899 5.59241 16.2394 5.52991 16.2836C5.49348 16.3093 5.4693 16.327 5.4583 16.3353Z" fill="#FFE017"/>
<path d="M5.81201 16.6026L6.00388 15.8563C8.544 16.5253 10.5023 16.8586 11.869 16.8586C13.2306 16.8586 15.2571 16.4654 17.9356 15.6763L18.1485 16.4166C15.4068 17.2245 13.318 17.6297 11.869 17.6297C10.4251 17.6297 8.40936 17.2866 5.81201 16.6026Z" fill="#FFE017"/>
<path d="M4.82251 9.69441L6.02959 8.46248L7.79691 10.2361L6.58983 11.4681L4.82251 9.69441Z" fill="#FFE017"/>
<path d="M14.8359 15.8478L15.7338 14.3698L18.5374 16.1142L17.6396 17.5922L14.8359 15.8478Z" fill="#FFE017"/>
</g>
<path fill-rule="evenodd" clip-rule="evenodd" d="M4.19043 12C4.19043 16.3118 7.64423 19.8072 11.9047 19.8072C16.1652 19.8072 19.619 16.3118 19.619 12C19.619 7.68819 16.1652 4.19277 11.9047 4.19277C7.64423 4.19277 4.19043 7.68819 4.19043 12ZM18.6666 12.0964C18.6666 15.8226 15.6819 18.8434 12 18.8434C8.31806 18.8434 5.33329 15.8226 5.33329 12.0964C5.33329 8.37013 8.31806 5.3494 12 5.3494C15.6819 5.3494 18.6666 8.37013 18.6666 12.0964Z" fill="#F9E813"/>
<path d="M7.65674 7.18526V13.446C8.06887 15.9241 9.45734 17.1631 11.8221 17.1631C14.1869 17.1631 15.5754 15.9241 15.9875 13.446V7.18526H7.65674Z" fill="white"/>
<path d="M7.08521 6.60695H16.5588V13.4943L16.5509 13.542C16.0933 16.2936 14.4709 17.7414 11.822 17.7414C9.17313 17.7414 7.55077 16.2936 7.09313 13.542L7.08521 13.4943V6.60695Z" fill="#C51918"/>
<path d="M9.2522 8.71069H14.3919V13.1516C14.3919 13.1516 14.0105 15.4449 11.8221 15.4449C9.6336 15.4449 9.2522 13.1516 9.2522 13.1516V8.71069Z" fill="#F7FCFF"/>
<path fill-rule="evenodd" clip-rule="evenodd" d="M7.99976 7.08434H8.72265V7.56626H7.99976V7.08434Z" fill="#F9E813"/>
<path fill-rule="evenodd" clip-rule="evenodd" d="M7.6189 7.27711H8.95223V7.51807H7.6189V7.27711Z" fill="#060101"/>
<path fill-rule="evenodd" clip-rule="evenodd" d="M7.6189 7.46988H8.34179V7.71084H7.6189V7.46988Z" fill="#F9E813"/>
<path fill-rule="evenodd" clip-rule="evenodd" d="M8.38086 7.46988H9.10375V7.71084H8.38086V7.46988Z" fill="#F9E813"/>
<path fill-rule="evenodd" clip-rule="evenodd" d="M7.6189 8.04819H8.10082V8.77108H7.6189V8.04819Z" fill="#F9E813"/>
<path fill-rule="evenodd" clip-rule="evenodd" d="M8.57129 8.04819H9.05322V8.77108H8.57129V8.04819Z" fill="#F9E813"/>
<path fill-rule="evenodd" clip-rule="evenodd" d="M8.19043 8.04819H8.43139V8.77108H8.19043V8.04819Z" fill="#F9E813"/>
<path fill-rule="evenodd" clip-rule="evenodd" d="M7.6189 7.85542H8.95223V8.09638H7.6189V7.85542Z" fill="#060101"/>
<path fill-rule="evenodd" clip-rule="evenodd" d="M7.6189 8.43373H8.95223V8.6747H7.6189V8.43373Z" fill="#060101"/>
<path fill-rule="evenodd" clip-rule="evenodd" d="M7.80933 7.66265H8.05029V7.90361H7.80933V7.66265Z" fill="#F9E813"/>
<path fill-rule="evenodd" clip-rule="evenodd" d="M8.57129 7.66265H8.81225V7.90361H8.57129V7.66265Z" fill="#F9E813"/>
<path fill-rule="evenodd" clip-rule="evenodd" d="M8.19043 7.46988H8.43139V7.95181H8.19043V7.46988Z" fill="#F9E813"/>
<path fill-rule="evenodd" clip-rule="evenodd" d="M11.6189 7.08434H12.3418V7.56626H11.6189V7.08434Z" fill="#F9E813"/>
<path fill-rule="evenodd" clip-rule="evenodd" d="M11.238 7.27711H12.5714V7.51807H11.238V7.27711Z" fill="#060101"/>
<path fill-rule="evenodd" clip-rule="evenodd" d="M11.238 7.46988H11.9609V7.71084H11.238V7.46988Z" fill="#F9E813"/>
<path fill-rule="evenodd" clip-rule="evenodd" d="M12 7.46988H12.7229V7.71084H12V7.46988Z" fill="#F9E813"/>
<path fill-rule="evenodd" clip-rule="evenodd" d="M11.238 8.04819H11.72V8.77108H11.238V8.04819Z" fill="#F9E813"/>
<path fill-rule="evenodd" clip-rule="evenodd" d="M12.1904 8.04819H12.6724V8.77108H12.1904V8.04819Z" fill="#F9E813"/>
<path fill-rule="evenodd" clip-rule="evenodd" d="M11.8096 8.04819H12.0505V8.77108H11.8096V8.04819Z" fill="#F9E813"/>
<path fill-rule="evenodd" clip-rule="evenodd" d="M11.238 7.85542H12.5714V8.09638H11.238V7.85542Z" fill="#060101"/>
<path fill-rule="evenodd" clip-rule="evenodd" d="M11.238 8.43373H12.5714V8.6747H11.238V8.43373Z" fill="#060101"/>
<path fill-rule="evenodd" clip-rule="evenodd" d="M11.4285 7.66265H11.6694V7.90361H11.4285V7.66265Z" fill="#F9E813"/>
<path fill-rule="evenodd" clip-rule="evenodd" d="M12.1904 7.66265H12.4314V7.90361H12.1904V7.66265Z" fill="#F9E813"/>
<path fill-rule="evenodd" clip-rule="evenodd" d="M11.8096 7.46988H12.0505V7.95181H11.8096V7.46988Z" fill="#F9E813"/>
<path fill-rule="evenodd" clip-rule="evenodd" d="M15.0474 7.08434H15.7703V7.56626H15.0474V7.08434Z" fill="#F9E813"/>
<path fill-rule="evenodd" clip-rule="evenodd" d="M14.6665 7.27711H15.9998V7.51807H14.6665V7.27711Z" fill="#060101"/>
<path fill-rule="evenodd" clip-rule="evenodd" d="M14.6665 7.46988H15.3894V7.71084H14.6665V7.46988Z" fill="#F9E813"/>
<path fill-rule="evenodd" clip-rule="evenodd" d="M15.4285 7.46988H16.1514V7.71084H15.4285V7.46988Z" fill="#F9E813"/>
<path fill-rule="evenodd" clip-rule="evenodd" d="M14.6665 8.04819H15.1484V8.77108H14.6665V8.04819Z" fill="#F9E813"/>
<path fill-rule="evenodd" clip-rule="evenodd" d="M15.6189 8.04819H16.1008V8.77108H15.6189V8.04819Z" fill="#F9E813"/>
<path fill-rule="evenodd" clip-rule="evenodd" d="M15.238 8.04819H15.479V8.77108H15.238V8.04819Z" fill="#F9E813"/>
<path fill-rule="evenodd" clip-rule="evenodd" d="M14.6665 7.85542H15.9998V8.09638H14.6665V7.85542Z" fill="#060101"/>
<path fill-rule="evenodd" clip-rule="evenodd" d="M14.6665 8.43373H15.9998V8.6747H14.6665V8.43373Z" fill="#060101"/>
<path fill-rule="evenodd" clip-rule="evenodd" d="M14.8569 7.66265H15.0979V7.90361H14.8569V7.66265Z" fill="#F9E813"/>
<path fill-rule="evenodd" clip-rule="evenodd" d="M15.6189 7.66265H15.8599V7.90361H15.6189V7.66265Z" fill="#F9E813"/>
<path fill-rule="evenodd" clip-rule="evenodd" d="M15.238 7.46988H15.479V7.95181H15.238V7.46988Z" fill="#F9E813"/>
<path fill-rule="evenodd" clip-rule="evenodd" d="M15.0474 10.5542H15.7703V11.0361H15.0474V10.5542Z" fill="#F9E813"/>
<path fill-rule="evenodd" clip-rule="evenodd" d="M14.6665 10.747H15.9998V10.988H14.6665V10.747Z" fill="#060101"/>
<path fill-rule="evenodd" clip-rule="evenodd" d="M14.6665 10.9398H15.3894V11.1807H14.6665V10.9398Z" fill="#F9E813"/>
<path fill-rule="evenodd" clip-rule="evenodd" d="M15.4285 10.9398H16.1514V11.1807H15.4285V10.9398Z" fill="#F9E813"/>
<path fill-rule="evenodd" clip-rule="evenodd" d="M14.6665 11.5181H15.1484V12.241H14.6665V11.5181Z" fill="#F9E813"/>
<path fill-rule="evenodd" clip-rule="evenodd" d="M15.6189 11.5181H16.1008V12.241H15.6189V11.5181Z" fill="#F9E813"/>
<path fill-rule="evenodd" clip-rule="evenodd" d="M15.238 11.5181H15.479V12.241H15.238V11.5181Z" fill="#F9E813"/>
<path fill-rule="evenodd" clip-rule="evenodd" d="M14.6665 11.3253H15.9998V11.5663H14.6665V11.3253Z" fill="#060101"/>
<path fill-rule="evenodd" clip-rule="evenodd" d="M14.6665 11.9036H15.9998V12.1446H14.6665V11.9036Z" fill="#060101"/>
<path fill-rule="evenodd" clip-rule="evenodd" d="M14.8569 11.1325H15.0979V11.3735H14.8569V11.1325Z" fill="#F9E813"/>
<path fill-rule="evenodd" clip-rule="evenodd" d="M15.6189 11.1325H15.8599V11.3735H15.6189V11.1325Z" fill="#F9E813"/>
<path fill-rule="evenodd" clip-rule="evenodd" d="M15.238 10.9398H15.479V11.4217H15.238V10.9398Z" fill="#F9E813"/>
<path fill-rule="evenodd" clip-rule="evenodd" d="M7.99976 10.5542H8.72265V11.0361H7.99976V10.5542Z" fill="#F9E813"/>
<path fill-rule="evenodd" clip-rule="evenodd" d="M7.6189 10.747H8.95223V10.988H7.6189V10.747Z" fill="#060101"/>
<path fill-rule="evenodd" clip-rule="evenodd" d="M7.6189 10.9398H8.34179V11.1807H7.6189V10.9398Z" fill="#F9E813"/>
<path fill-rule="evenodd" clip-rule="evenodd" d="M8.38086 10.9398H9.10375V11.1807H8.38086V10.9398Z" fill="#F9E813"/>
<path fill-rule="evenodd" clip-rule="evenodd" d="M7.6189 11.5181H8.10082V12.241H7.6189V11.5181Z" fill="#F9E813"/>
<path fill-rule="evenodd" clip-rule="evenodd" d="M8.57129 11.5181H9.05322V12.241H8.57129V11.5181Z" fill="#F9E813"/>
<path fill-rule="evenodd" clip-rule="evenodd" d="M8.19043 11.5181H8.43139V12.241H8.19043V11.5181Z" fill="#F9E813"/>
<path fill-rule="evenodd" clip-rule="evenodd" d="M7.6189 11.3253H8.95223V11.5663H7.6189V11.3253Z" fill="#060101"/>
<path fill-rule="evenodd" clip-rule="evenodd" d="M7.6189 11.9036H8.95223V12.1446H7.6189V11.9036Z" fill="#060101"/>
<path fill-rule="evenodd" clip-rule="evenodd" d="M7.80933 11.1325H8.05029V11.3735H7.80933V11.1325Z" fill="#F9E813"/>
<path fill-rule="evenodd" clip-rule="evenodd" d="M8.57129 11.1325H8.81225V11.3735H8.57129V11.1325Z" fill="#F9E813"/>
<path fill-rule="evenodd" clip-rule="evenodd" d="M8.19043 10.9398H8.43139V11.4217H8.19043V10.9398Z" fill="#F9E813"/>
<path fill-rule="evenodd" clip-rule="evenodd" d="M8.46362 14.9039L8.92829 14.3502L9.29747 14.66L8.8328 15.2137L8.46362 14.9039Z" fill="#F9E813"/>
<path fill-rule="evenodd" clip-rule="evenodd" d="M8.36646 15.3197L9.22351 14.2983L9.40809 14.4532L8.55104 15.4746L8.36646 15.3197Z" fill="#060101"/>
<path fill-rule="evenodd" clip-rule="evenodd" d="M8.51416 15.4436L8.97883 14.8898L9.16341 15.0447L8.69875 15.5985L8.51416 15.4436Z" fill="#F9E813"/>
<path fill-rule="evenodd" clip-rule="evenodd" d="M9.00391 14.8599L9.46857 14.3062L9.65316 14.4611L9.1885 15.0148L9.00391 14.8599Z" fill="#F9E813"/>
<path fill-rule="evenodd" clip-rule="evenodd" d="M8.95703 15.8153L9.26681 15.4462L9.82058 15.9108L9.5108 16.28L8.95703 15.8153Z" fill="#F9E813"/>
<path fill-rule="evenodd" clip-rule="evenodd" d="M9.56934 15.0858L9.87911 14.7166L10.4329 15.1813L10.1231 15.5504L9.56934 15.0858Z" fill="#F9E813"/>
<path fill-rule="evenodd" clip-rule="evenodd" d="M9.32446 15.3776L9.47935 15.193L10.0331 15.6577L9.87823 15.8423L9.32446 15.3776Z" fill="#F9E813"/>
<path fill-rule="evenodd" clip-rule="evenodd" d="M8.80933 15.6914L9.66638 14.67L9.85097 14.8249L8.99392 15.8463L8.80933 15.6914Z" fill="#060101"/>
<path fill-rule="evenodd" clip-rule="evenodd" d="M9.25244 16.0632L10.1095 15.0418L10.2941 15.1966L9.43703 16.218L9.25244 16.0632Z" fill="#060101"/>
<path fill-rule="evenodd" clip-rule="evenodd" d="M8.78418 15.4216L8.93907 15.237L9.12366 15.3919L8.96877 15.5765L8.78418 15.4216Z" fill="#F9E813"/>
<path fill-rule="evenodd" clip-rule="evenodd" d="M9.27393 14.8379L9.42881 14.6534L9.6134 14.8082L9.45851 14.9928L9.27393 14.8379Z" fill="#F9E813"/>
<path fill-rule="evenodd" clip-rule="evenodd" d="M8.88135 15.0059L9.03624 14.8213L9.40541 15.131L9.25053 15.3156L8.88135 15.0059Z" fill="#F9E813"/>
<path fill-rule="evenodd" clip-rule="evenodd" d="M14.9783 14.4662L15.4429 15.02L15.0738 15.3298L14.6091 14.776L14.9783 14.4662Z" fill="#F9E813"/>
<path fill-rule="evenodd" clip-rule="evenodd" d="M14.5857 14.2983L15.4427 15.3197L15.2582 15.4746L14.4011 14.4532L14.5857 14.2983Z" fill="#060101"/>
<path fill-rule="evenodd" clip-rule="evenodd" d="M14.438 14.4222L14.9027 14.976L14.7181 15.1309L14.2534 14.5771L14.438 14.4222Z" fill="#F9E813"/>
<path fill-rule="evenodd" clip-rule="evenodd" d="M14.9277 15.0059L15.3924 15.5596L15.2078 15.7145L14.7431 15.1607L14.9277 15.0059Z" fill="#F9E813"/>
<path fill-rule="evenodd" clip-rule="evenodd" d="M13.9951 14.7939L14.3049 15.1631L13.7511 15.6278L13.4414 15.2586L13.9951 14.7939Z" fill="#F9E813"/>
<path fill-rule="evenodd" clip-rule="evenodd" d="M14.6072 15.5235L14.917 15.8927L14.3632 16.3573L14.0534 15.9882L14.6072 15.5235Z" fill="#F9E813"/>
<path fill-rule="evenodd" clip-rule="evenodd" d="M14.3623 15.2317L14.5172 15.4163L13.9634 15.8809L13.8085 15.6963L14.3623 15.2317Z" fill="#F9E813"/>
<path fill-rule="evenodd" clip-rule="evenodd" d="M14.1428 14.67L14.9999 15.6914L14.8153 15.8463L13.9582 14.8249L14.1428 14.67Z" fill="#060101"/>
<path fill-rule="evenodd" clip-rule="evenodd" d="M13.6997 15.0418L14.5568 16.0632L14.3722 16.218L13.5151 15.1966L13.6997 15.0418Z" fill="#060101"/>
<path fill-rule="evenodd" clip-rule="evenodd" d="M14.4128 14.692L14.5677 14.8766L14.3831 15.0315L14.2283 14.8469L14.4128 14.692Z" fill="#F9E813"/>
<path fill-rule="evenodd" clip-rule="evenodd" d="M14.9026 15.2757L15.0575 15.4603L14.8729 15.6152L14.718 15.4306L14.9026 15.2757Z" fill="#F9E813"/>
<path fill-rule="evenodd" clip-rule="evenodd" d="M14.8054 14.8599L14.9603 15.0445L14.5911 15.3543L14.4362 15.1697L14.8054 14.8599Z" fill="#F9E813"/>
<path fill-rule="evenodd" clip-rule="evenodd" d="M12.5584 9.20482H11.238V10.1663C11.238 10.1663 11.336 10.6628 11.8982 10.6628C12.4604 10.6628 12.5584 10.1663 12.5584 10.1663V9.20482ZM11.8095 9.59036C11.8095 9.69683 11.7242 9.78313 11.619 9.78313C11.5138 9.78313 11.4285 9.69683 11.4285 9.59036C11.4285 9.4839 11.5138 9.39759 11.619 9.39759C11.7242 9.39759 11.8095 9.4839 11.8095 9.59036ZM11.619 10.5542C11.7242 10.5542 11.8095 10.4679 11.8095 10.3614C11.8095 10.255 11.7242 10.1687 11.619 10.1687C11.5138 10.1687 11.4285 10.255 11.4285 10.3614C11.4285 10.4679 11.5138 10.5542 11.619 10.5542ZM12.3809 10.3614C12.3809 10.4679 12.2956 10.5542 12.1904 10.5542C12.0852 10.5542 11.9999 10.4679 11.9999 10.3614C11.9999 10.255 12.0852 10.1687 12.1904 10.1687C12.2956 10.1687 12.3809 10.255 12.3809 10.3614ZM11.9047 10.1687C12.0099 10.1687 12.0952 10.0824 12.0952 9.9759C12.0952 9.86944 12.0099 9.78313 11.9047 9.78313C11.7995 9.78313 11.7142 9.86944 11.7142 9.9759C11.7142 10.0824 11.7995 10.1687 11.9047 10.1687ZM12.3809 9.59036C12.3809 9.69683 12.2956 9.78313 12.1904 9.78313C12.0852 9.78313 11.9999 9.69683 11.9999 9.59036C11.9999 9.4839 12.0852 9.39759 12.1904 9.39759C12.2956 9.39759 12.3809 9.4839 12.3809 9.59036Z" fill="#013399"/>
<path fill-rule="evenodd" clip-rule="evenodd" d="M12.5584 11.3253H11.238V12.2868C11.238 12.2868 11.336 12.7833 11.8982 12.7833C12.4604 12.7833 12.5584 12.2868 12.5584 12.2868V11.3253ZM11.8095 11.7108C11.8095 11.8173 11.7242 11.9036 11.619 11.9036C11.5138 11.9036 11.4285 11.8173 11.4285 11.7108C11.4285 11.6044 11.5138 11.5181 11.619 11.5181C11.7242 11.5181 11.8095 11.6044 11.8095 11.7108ZM11.619 12.6747C11.7242 12.6747 11.8095 12.5884 11.8095 12.4819C11.8095 12.3755 11.7242 12.2892 11.619 12.2892C11.5138 12.2892 11.4285 12.3755 11.4285 12.4819C11.4285 12.5884 11.5138 12.6747 11.619 12.6747ZM12.3809 12.4819C12.3809 12.5884 12.2956 12.6747 12.1904 12.6747C12.0852 12.6747 11.9999 12.5884 11.9999 12.4819C11.9999 12.3755 12.0852 12.2892 12.1904 12.2892C12.2956 12.2892 12.3809 12.3755 12.3809 12.4819ZM11.9047 12.2892C12.0099 12.2892 12.0952 12.2029 12.0952 12.0964C12.0952 11.9899 12.0099 11.9036 11.9047 11.9036C11.7995 11.9036 11.7142 11.9899 11.7142 12.0964C11.7142 12.2029 11.7995 12.2892 11.9047 12.2892ZM12.3809 11.7108C12.3809 11.8173 12.2956 11.9036 12.1904 11.9036C12.0852 11.9036 11.9999 11.8173 11.9999 11.7108C11.9999 11.6044 12.0852 11.5181 12.1904 11.5181C12.2956 11.5181 12.3809 11.6044 12.3809 11.7108Z" fill="#013399"/>
<path fill-rule="evenodd" clip-rule="evenodd" d="M14.2727 11.3253H12.9524V12.2868C12.9524 12.2868 13.0504 12.7833 13.6126 12.7833C14.1747 12.7833 14.2727 12.2868 14.2727 12.2868V11.3253ZM13.5238 11.7108C13.5238 11.8173 13.4385 11.9036 13.3333 11.9036C13.2281 11.9036 13.1429 11.8173 13.1429 11.7108C13.1429 11.6044 13.2281 11.5181 13.3333 11.5181C13.4385 11.5181 13.5238 11.6044 13.5238 11.7108ZM13.3333 12.6747C13.4385 12.6747 13.5238 12.5884 13.5238 12.4819C13.5238 12.3755 13.4385 12.2892 13.3333 12.2892C13.2281 12.2892 13.1429 12.3755 13.1429 12.4819C13.1429 12.5884 13.2281 12.6747 13.3333 12.6747ZM14.0952 12.4819C14.0952 12.5884 14.01 12.6747 13.9048 12.6747C13.7996 12.6747 13.7143 12.5884 13.7143 12.4819C13.7143 12.3755 13.7996 12.2892 13.9048 12.2892C14.01 12.2892 14.0952 12.3755 14.0952 12.4819ZM13.6191 12.2892C13.7243 12.2892 13.8095 12.2029 13.8095 12.0964C13.8095 11.9899 13.7243 11.9036 13.6191 11.9036C13.5139 11.9036 13.4286 11.9899 13.4286 12.0964C13.4286 12.2029 13.5139 12.2892 13.6191 12.2892ZM14.0952 11.7108C14.0952 11.8173 14.01 11.9036 13.9048 11.9036C13.7996 11.9036 13.7143 11.8173 13.7143 11.7108C13.7143 11.6044 13.7996 11.5181 13.9048 11.5181C14.01 11.5181 14.0952 11.6044 14.0952 11.7108Z" fill="#013399"/>
<path fill-rule="evenodd" clip-rule="evenodd" d="M10.844 11.3253H9.52368V12.2868C9.52368 12.2868 9.62166 12.7833 10.1838 12.7833C10.746 12.7833 10.844 12.2868 10.844 12.2868V11.3253ZM10.0951 11.7108C10.0951 11.8173 10.0098 11.9036 9.90463 11.9036C9.79944 11.9036 9.71416 11.8173 9.71416 11.7108C9.71416 11.6044 9.79944 11.5181 9.90463 11.5181C10.0098 11.5181 10.0951 11.6044 10.0951 11.7108ZM9.90463 12.6747C10.0098 12.6747 10.0951 12.5884 10.0951 12.4819C10.0951 12.3755 10.0098 12.2892 9.90463 12.2892C9.79944 12.2892 9.71416 12.3755 9.71416 12.4819C9.71416 12.5884 9.79944 12.6747 9.90463 12.6747ZM10.6665 12.4819C10.6665 12.5884 10.5813 12.6747 10.4761 12.6747C10.3709 12.6747 10.2856 12.5884 10.2856 12.4819C10.2856 12.3755 10.3709 12.2892 10.4761 12.2892C10.5813 12.2892 10.6665 12.3755 10.6665 12.4819ZM10.1903 12.2892C10.2955 12.2892 10.3808 12.2029 10.3808 12.0964C10.3808 11.9899 10.2955 11.9036 10.1903 11.9036C10.0852 11.9036 9.99987 11.9899 9.99987 12.0964C9.99987 12.2029 10.0852 12.2892 10.1903 12.2892ZM10.6665 11.7108C10.6665 11.8173 10.5813 11.9036 10.4761 11.9036C10.3709 11.9036 10.2856 11.8173 10.2856 11.7108C10.2856 11.6044 10.3709 11.5181 10.4761 11.5181C10.5813 11.5181 10.6665 11.6044 10.6665 11.7108Z" fill="#013399"/>
<path fill-rule="evenodd" clip-rule="evenodd" d="M12.5584 13.4458H11.238V14.4073C11.238 14.4073 11.336 14.9038 11.8982 14.9038C12.4604 14.9038 12.5584 14.4073 12.5584 14.4073V13.4458ZM11.8095 13.8313C11.8095 13.9378 11.7242 14.0241 11.619 14.0241C11.5138 14.0241 11.4285 13.9378 11.4285 13.8313C11.4285 13.7249 11.5138 13.6386 11.619 13.6386C11.7242 13.6386 11.8095 13.7249 11.8095 13.8313ZM11.619 14.7952C11.7242 14.7952 11.8095 14.7089 11.8095 14.6024C11.8095 14.4959 11.7242 14.4096 11.619 14.4096C11.5138 14.4096 11.4285 14.4959 11.4285 14.6024C11.4285 14.7089 11.5138 14.7952 11.619 14.7952ZM12.3809 14.6024C12.3809 14.7089 12.2956 14.7952 12.1904 14.7952C12.0852 14.7952 11.9999 14.7089 11.9999 14.6024C11.9999 14.4959 12.0852 14.4096 12.1904 14.4096C12.2956 14.4096 12.3809 14.4959 12.3809 14.6024ZM11.9047 14.4096C12.0099 14.4096 12.0952 14.3233 12.0952 14.2169C12.0952 14.1104 12.0099 14.0241 11.9047 14.0241C11.7995 14.0241 11.7142 14.1104 11.7142 14.2169C11.7142 14.3233 11.7995 14.4096 11.9047 14.4096ZM12.3809 13.8313C12.3809 13.9378 12.2956 14.0241 12.1904 14.0241C12.0852 14.0241 11.9999 13.9378 11.9999 13.8313C11.9999 13.7249 12.0852 13.6386 12.1904 13.6386C12.2956 13.6386 12.3809 13.7249 12.3809 13.8313Z" fill="#013399"/>
</g>
<defs>
<clipPath id="clip0_32_3">
<rect width="32" height="24" rx="8" fill="white"/>
</clipPath>
</defs>
</svg>
